<svg width="32" height="32" viewBox="0 0 32 32" fill="none" xmlns="http://www.w3.org/2000/svg">
<path d="M2.66666 29.3332V26.6666C2.66666 26.6666 9.33332 23.9999 16 23.9999C22.6667 23.9999 29.3333 26.6666 29.3333 26.6666V29.3332H2.66666ZM15.0667 12.1332C13.4667 6.93324 5.33332 8.13324 5.33332 8.13324C5.33332 8.13324 5.59999 18.5332 13.2 16.9332C12.6667 13.0666 10.6667 11.9999 10.6667 11.9999C14.4 11.9999 14.6667 16.5332 14.6667 16.5332V22.6666H17.3333V17.0666C17.3333 17.0666 17.3333 11.8666 21.3333 10.5332C21.3333 10.5332 18.6667 14.5332 18.6667 17.1999C28 18.1332 28 5.33324 28 5.33324C28 5.33324 16.1333 3.99991 15.0667 12.1332Z" fill="black"/>
</svg>
