<svg width="32" height="32" viewBox="0 0 32 32" fill="none" xmlns="http://www.w3.org/2000/svg">
<path d="M24.08 30.6666H26.2933C27.4133 30.6666 28.3333 29.7999 28.4667 28.7066L30.6667 6.73325H24V1.33325H21.3733V6.73325H14.7467L15.1467 9.85325C17.4267 10.4799 19.56 11.6133 20.84 12.8666C22.76 14.7599 24.08 16.7199 24.08 19.9199V30.6666ZM1.33334 29.3333V27.9999H21.3733V29.3333C21.3733 30.0533 20.7733 30.6666 20 30.6666H2.66668C1.93334 30.6666 1.33334 30.0533 1.33334 29.3333ZM21.3733 19.9999C21.3733 9.33325 1.33334 9.33325 1.33334 19.9999H21.3733ZM1.33334 22.6666H21.3333V25.3333H1.33334V22.6666Z" fill="black"/>
</svg>
