<svg width="32" height="32" viewBox="0 0 32 32" fill="none" xmlns="http://www.w3.org/2000/svg">
<path d="M16.8133 3.04937C16.5877 2.85332 16.2989 2.74536 16 2.74536C15.7011 2.74536 15.4123 2.85332 15.1867 3.04937C14.1728 3.92663 13.3539 5.00654 12.7828 6.21952C12.2117 7.4325 11.901 8.75166 11.8707 10.092C11.8704 10.2165 11.905 10.3385 11.9705 10.4443C12.036 10.5501 12.1298 10.6354 12.2413 10.6907C13.0526 11.112 13.8131 11.6247 14.508 12.2187C14.8511 12.512 15.164 12.8147 15.4467 13.1267C15.74 13.4494 16.26 13.4494 16.5533 13.1267C16.8369 12.8147 17.1498 12.5125 17.492 12.22C18.1869 11.626 18.9474 11.1134 19.7587 10.692C19.8704 10.637 19.9645 10.5517 20.0302 10.4459C20.096 10.3401 20.1308 10.2179 20.1307 10.0934C20.1005 8.75277 19.7899 7.43335 19.2188 6.22012C18.6476 5.0069 17.8287 3.92678 16.8147 3.04937M16 24.0574C17.0701 22.1727 18.6786 20.6506 20.6195 19.6861C22.5603 18.7216 24.7449 18.3588 26.8933 18.644C27.544 18.7294 28.0307 19.3107 27.98 19.9827C27.7841 22.527 26.635 24.9037 24.7624 26.6373C22.8899 28.371 20.4319 29.3338 17.88 29.3334H14.12C11.5683 29.3335 9.11067 28.3705 7.23838 26.6369C5.36609 24.9033 4.21716 22.5268 4.02132 19.9827C3.99676 19.6629 4.09574 19.3458 4.29789 19.0968C4.50004 18.8478 4.78997 18.6857 5.10799 18.644C7.25639 18.3588 9.44103 18.7216 11.3819 19.6861C13.3227 20.6506 14.9312 22.1727 16.0013 24.0574M26.196 17.24C23.7333 17.104 21.324 17.7467 19.3613 18.7934C18.1853 19.42 17.108 20.2267 16.2653 21.1547C16.2316 21.191 16.1908 21.22 16.1454 21.2399C16.0999 21.2597 16.0509 21.2699 16.0013 21.2699C15.9518 21.2699 15.9027 21.2597 15.8573 21.2399C15.8119 21.22 15.771 21.191 15.7373 21.1547C14.8973 20.2254 13.8187 19.42 12.6427 18.7934C10.684 17.7494 8.28266 17.108 5.82665 17.24C4.85332 15.7067 4.18666 13.9467 4.02666 12.1734C4.01202 12.0058 4.03056 11.8369 4.08121 11.6765C4.13187 11.5161 4.21365 11.3673 4.32188 11.2385C4.43011 11.1097 4.56267 11.0035 4.71197 10.926C4.86127 10.8485 5.02438 10.8011 5.19199 10.7867C8.46532 10.5134 11.1973 11.16 13.648 13.236C14.7547 14.1734 15.496 15.2987 16.0027 16.2587C16.508 15.2987 17.2507 14.1734 18.356 13.236C20.8093 11.1587 23.56 10.5134 26.8307 10.7867C26.9984 10.801 27.1616 10.8482 27.3111 10.9256C27.4605 11.0031 27.5933 11.1092 27.7016 11.238C27.81 11.3668 27.8919 11.5158 27.9426 11.6762C27.9934 11.8367 28.012 12.0057 27.9973 12.1734C27.836 13.9467 27.1693 15.708 26.1973 17.24" fill="#010208"/>
</svg>
